<svg xmlns="http://www.w3.org/2000/svg" width="276" height="276" viewBox="0 0 276 276">
    <g fill="none" fill-rule="evenodd">
        <g>
            <g transform="translate(-918 -200) translate(918 200)">
                <rect width="276" height="276" fill="#E7EDF3" rx="138"></rect>
                <path fill="#FFF" d="M60 114.908L81.968 103.25 87.824 90.313 111.421 72 135.018 85.135 159.965 72 189.476 90.303 189.476 103.25 213.016 114.908 216 144.993 216 154.155 194.037 166.944 194.037 194.964 165.935 216 164.582 205.482 138.005 189.777 116.038 205.482 116.038 216 86.529 199.244 86.529 175.546 81.968 170.202 60 159.228z"></path>
                <path fill="#18202D" d="M242.94 79.57c-.016-.094-.008-.187-.033-.28-.068-.245-.17-.481-.296-.701-.042-.076-.11-.136-.16-.212h.008c-.093-.143-.195-.279-.313-.405-.067-.068-.16-.119-.237-.186l.009.008c-.118-.11-.237-.203-.364-.287l-.025-.009-.017-.017-24.719-14.16c-.913-.524-2.029-.524-2.942 0l-24.736 14.16-.017.017-.025.009c-.127.084-.245.177-.363.287-.076.06-.17.11-.229.186v-.008c-.118.126-.22.262-.312.405-.051.068-.11.127-.153.203v.009c-.126.22-.22.456-.287.701-.025.085-.017.178-.034.27-.042.162-.059.322-.067.491v6.028l-21.997-13.78c.034-.144.051-.296.06-.448V47.123c-.009-.16-.026-.33-.068-.482-.017-.093-.009-.186-.034-.279-.068-.245-.16-.481-.287-.701-.06-.093-.127-.178-.195-.254-.076-.127-.169-.245-.27-.363-.085-.076-.178-.153-.28-.22-.1-.085-.202-.17-.32-.245h-.018l-.008-.026-24.736-14.16c-.913-.524-2.029-.524-2.942 0l-24.736 14.16-.017.017h-.017c-.118.076-.22.16-.321.245-.102.068-.195.144-.28.22-.1.119-.194.237-.278.364-.068.076-.127.16-.186.245-.127.228-.22.465-.287.71-.026.084-.017.177-.034.27v-.008c-.043.17-.06.33-.068.499V71.85c.009.152.025.305.06.448L88.38 86.08v-6.028c-.009-.16-.034-.32-.068-.481-.017-.093-.008-.186-.034-.28-.067-.245-.16-.481-.287-.701-.042-.076-.11-.135-.16-.211-.094-.144-.195-.28-.305-.406-.068-.068-.16-.119-.237-.186v.008c-.11-.11-.237-.203-.363-.287l-.026-.009-.017-.017-24.718-14.16c-.913-.524-2.03-.524-2.942 0l-24.728 14.16-.017.017-.025.009c-.127.084-.254.177-.363.287-.077.06-.17.11-.229.186l-.008-.008c-.11.127-.22.262-.305.406-.05.067-.11.126-.152.202l-.008.009c-.127.22-.22.456-.288.702-.025.084-.016.177-.033.27-.034.16-.06.321-.068.49v24.728c0 1.082.592 2.08 1.547 2.596l23.189 12.663v33.883l-23.239 13.306-.017.017-.025.008c-.127.085-.254.178-.364.28-.076.058-.169.11-.228.185h-.008c-.11.127-.22.262-.305.406-.05.068-.11.127-.152.203h-.008c-.127.228-.22.465-.288.71-.025.085-.017.178-.033.27v-.008c-.034.17-.06.33-.069.499v24.728c0 1.082.601 2.08 1.548 2.595l24.727 13.5c.136.068.28.12.432.17.076.025.152.068.236.093v-.009c.49.136 1.006.136 1.505 0 .084-.025.152-.067.237-.093l-.009.009c.152-.05.296-.102.431-.17l21-11.463 27.22 18.125v12.267-.009c0 1.083.591 2.08 1.538 2.596l24.728 13.5c.143.068.287.127.43.17.077.025.153.067.238.093.49.135 1.014.135 1.504 0 .085-.026.152-.068.237-.093.144-.043.287-.102.431-.17l24.719-13.5c.947-.516 1.538-1.514 1.538-2.596v-12.266l27.22-18.125 21 11.463c.135.068.279.127.43.17.077.025.153.067.238.092h-.009c.499.136 1.015.136 1.505 0 .084-.025.152-.067.237-.093.152-.042.295-.101.43-.169l24.72-13.492c.946-.516 1.539-1.513 1.539-2.595v-24.728c-.01-.16-.026-.33-.06-.482-.017-.093-.009-.186-.034-.279h-.008c-.06-.245-.161-.482-.288-.71-.042-.076-.11-.135-.16-.211l.008.008c-.093-.144-.194-.279-.313-.406-.067-.067-.16-.118-.236-.186h.008c-.118-.101-.237-.194-.364-.279l-.025-.008-.017-.017-23.238-13.306v-33.883l23.188-12.655c.947-.524 1.539-1.513 1.539-2.595V80.05c-.008-.16-.025-.321-.06-.482zm-87.03 125.597l-17.905 9.773-17.904-9.773-.761-.414 18.665-10.694 18.666 10.686-.76.422zM82.464 103.02l-18.81 10.272v-17.99l18.81-10.263v17.981zm-21.77 56.024L79.36 169.73l-.76.414-17.905 9.781-17.913-9.78-.761-.415 18.674-10.686zm24.481 7.203l-21.523-12.326V120.04l19.604-10.702 27.06 17.609v21.59l-25.14 17.711zm31.06-96.154V52.11l18.81 10.272v17.981l-18.81-10.271zm43.536 0l-18.81 10.271V62.383l18.81-10.272v17.982zm-21.77 44.5l18.667 10.685-.761.414-17.905 9.773-17.905-9.773-.76-.414 18.665-10.686zm-21.768 15.732l18.81 10.271v17.99l-18.81-10.271v-17.99zm24.727 10.271l18.81-10.271v17.99l-18.81 10.271v-17.99zm24.728-13.653l27.069-17.609 19.595 10.703v33.882l-21.523 12.326-25.14-17.711-.001-21.59zm46.663-31.642v17.99l-18.81-10.272V85.04l18.81 10.262zm-18.81 97.464v-17.982l18.81 10.272v17.981l-18.81-10.271zm39.673-22.623l-17.904 9.773-17.905-9.773-.761-.414 18.666-10.685 18.665 10.685-.76.414zM215.31 69.296l18.665 10.686-.76.414-17.905 9.773-17.905-9.773-.761-.414 18.666-10.686zm-27.576 36.242l-25.108 16.332-21.667-12.41V87.1l19.849-10.838 26.816 16.79v11.725c0 .253.042.507.11.76zm-49.732-69.17l18.666 10.694-17.846 9.74-.82.447-.82-.448-17.845-9.747 18.665-10.686zm-22.808 39.903l19.85 10.838v22.352l-21.668 12.41-25.108-16.333c.068-.253.102-.507.11-.76V93.06l26.816-16.789zm-54.501-6.974l18.666 10.686-.761.414-17.905 9.78-17.913-9.78-.761-.414 18.674-10.686zm-21.77 15.74l18.81 10.272v17.981l-18.81-10.27V85.037zm0 89.747l18.81 10.271v17.982l-18.81-10.272v-17.981zm24.728 10.271l18.81-10.271v17.981l-18.81 10.263v-17.973zm24.559 10.39c.11-.296.16-.609.169-.921v-23.3l25.09-17.677 21.575 11.776v23.611l-23.247 13.315-.017.017-.026.009v-.009c-.126.085-.245.186-.363.287-.076.06-.17.11-.228.186-.119.127-.22.263-.313.406-.05.068-.11.127-.152.203-.127.22-.229.457-.288.702-.025.084-.017.177-.034.27h-.008c-.034.16-.05.33-.06.49v5.352L88.21 195.445zm28.023 20.23V209.8l18.81 10.271v17.982l-18.81-10.263v-12.115zm24.728 22.378v-17.981L159.77 209.8v17.99l-18.81 10.263zm24.727-33.24c-.008-.16-.025-.321-.068-.482-.016-.093-.008-.186-.033-.279-.068-.245-.161-.482-.288-.701-.042-.076-.11-.136-.16-.212-.085-.143-.195-.279-.305-.397-.067-.068-.16-.118-.236-.186-.11-.11-.229-.203-.355-.287l-.026-.009-.017-.017-23.238-13.306v-23.611l21.574-11.776 25.09 17.677v23.3c.009.312.068.625.17.92l-22.107 14.719v-5.353zm52.582-1.784v-17.98l18.81-10.264v17.982l-18.81 10.262zm0-89.746V95.302l18.81-10.263v17.981l-18.81 10.263z"></path>
            </g>
        </g>
    </g>
</svg>